<?xml version="1.0" encoding="UTF-8" standalone="no"?>
<!-- Created with Inkscape (http://www.inkscape.org/) -->

<svg
   width="22"
   height="22"
   viewBox="0 0 5.8208332 5.8208333"
   version="1.1"
   id="svg1"
   inkscape:version="1.4 (e7c3feb100, 2024-10-09)"
   sodipodi:docname="urbackup_.svg"
   xml:space="preserve"
   inkscape:export-filename="Desktop/urbackupicons/urbackup_main.svg"
   inkscape:export-xdpi="96"
   inkscape:export-ydpi="96"
   inkscape:export-batch-path="urbackupicons"
   inkscape:export-batch-name="urbackup_"
   xmlns:inkscape="http://www.inkscape.org/namespaces/inkscape"
   xmlns:sodipodi="http://sodipodi.sourceforge.net/DTD/sodipodi-0.dtd"
   xmlns:xlink="http://www.w3.org/1999/xlink"
   xmlns="http://www.w3.org/2000/svg"
   xmlns:svg="http://www.w3.org/2000/svg"><sodipodi:namedview
     id="namedview1"
     pagecolor="#ffffff"
     bordercolor="#000000"
     borderopacity="0.25"
     inkscape:showpageshadow="false"
     inkscape:pageopacity="0.0"
     inkscape:pagecheckerboard="0"
     inkscape:deskcolor="#d1d1d1"
     inkscape:document-units="px"
     showborder="false"
     inkscape:zoom="11.313709"
     inkscape:cx="222.56185"
     inkscape:cy="-5.4800773"
     inkscape:window-width="1920"
     inkscape:window-height="1035"
     inkscape:window-x="1920"
     inkscape:window-y="0"
     inkscape:window-maximized="1"
     inkscape:current-layer="layer1"><inkscape:page
       x="0"
       y="0"
       width="5.8208332"
       height="5.8208332"
       id="page5"
       margin="0"
       bleed="0"
       inkscape:label="bad" /><inkscape:page
       x="15.820833"
       y="0"
       width="5.8208332"
       height="5.8208332"
       id="page6"
       margin="0"
       bleed="0"
       inkscape:label="progress" /><inkscape:page
       x="31.641666"
       y="0"
       width="5.8208332"
       height="5.8208332"
       id="page7"
       margin="0"
       bleed="0"
       inkscape:label="ok" /><inkscape:page
       x="47.462502"
       y="0"
       width="5.8208332"
       height="5.8208332"
       id="page8"
       margin="0"
       bleed="0"
       inkscape:label="progress-pause" /><inkscape:page
       x="63.283337"
       y="0"
       width="5.8208332"
       height="5.8208332"
       id="page1"
       margin="0"
       bleed="0"
       inkscape:label="main" /></sodipodi:namedview><defs
     id="defs1"><linearGradient
       id="linearGradient7"
       inkscape:collect="always"><stop
         style="stop-color:#000080;stop-opacity:1;"
         offset="0.09953436"
         id="stop7" /><stop
         style="stop-color:#000080;stop-opacity:0;"
         offset="1"
         id="stop8" /></linearGradient><linearGradient
       inkscape:collect="always"
       xlink:href="#linearGradient7"
       id="linearGradient6"
       gradientUnits="userSpaceOnUse"
       gradientTransform="matrix(4.7951386,0,0,0.1349206,-331.07459,75.052152)"
       x1="68.462761"
       y1="1.707184"
       x2="68.91879"
       y2="1.707184" /></defs><g
     inkscape:label="Layer 1"
     inkscape:groupmode="layer"
     id="layer1"><g
       id="g9"
       transform="matrix(0.81818177,0,0,0.81818177,0.52916666,0.54292651)"><path
         id="rect8"
         style="fill:#ff0000;stroke:#000000;stroke-width:0.263861;stroke-dasharray:none;stroke-opacity:1"
         d="M 0.1319305,1.3182584 V 4.4765449 C 0.13244724,4.605212 0.13220601,4.5451481 0.13244724,4.605212 0.13231527,4.91541 1.3760773,5.1668926 2.9104166,5.1669035 4.4447558,5.1668926 5.688518,4.91541 5.688386,4.605212 5.6889026,4.4765449 5.6887304,4.5194338 5.6889026,4.4765449 V 1.3182584 Z"
         sodipodi:nodetypes="cccccccc" /><ellipse
         style="fill:#ff0000;stroke:#000000;stroke-width:0.264387;stroke-dasharray:none;stroke-opacity:1"
         id="path8"
         cx="2.9104166"
         cy="1.1822324"
         rx="2.778223"
         ry="0.56167459" /><path
         id="path9"
         style="fill:none;stroke:#000000;stroke-width:0.264373;stroke-dasharray:none;stroke-opacity:1"
         d="m 0.13247031,2.844773 c -1.0593e-4,0.020688 -2.0234e-4,0.032761 -2.838e-4,0.033081 -1.3173e-4,0.3102395 1.24394639,0.561739 2.77848859,0.5616922 1.5343406,-1.09e-5 2.7781037,-0.2514935 2.777972,-0.5616919 -3.55e-5,-3.207e-4 -7.25e-5,-0.012349 -1.11e-4,-0.032969" /></g><g
       id="g13"
       transform="matrix(0.81818177,0,0,0.81818177,16.35,0.54292651)"><path
         id="path12"
         style="fill:#ffff00;stroke:#000000;stroke-width:0.263861;stroke-dasharray:none;stroke-opacity:1"
         d="M 0.1319305,1.3182584 V 4.4765449 C 0.13244724,4.605212 0.13220601,4.5451481 0.13244724,4.605212 0.13231527,4.91541 1.3760773,5.1668926 2.9104166,5.1669035 4.4447558,5.1668926 5.688518,4.91541 5.688386,4.605212 5.6889026,4.4765449 5.6887304,4.5194338 5.6889026,4.4765449 V 1.3182584 Z"
         sodipodi:nodetypes="cccccccc" /><ellipse
         style="fill:#ffff00;stroke:#000000;stroke-width:0.264387;stroke-dasharray:none;stroke-opacity:1"
         id="ellipse12"
         cx="2.9104166"
         cy="1.1822324"
         rx="2.778223"
         ry="0.56167459" /><path
         id="path13"
         style="fill:none;stroke:#000000;stroke-width:0.264373;stroke-dasharray:none;stroke-opacity:1"
         d="m 0.13247031,2.844773 c -1.0593e-4,0.020688 -2.0234e-4,0.032761 -2.838e-4,0.033081 -1.3173e-4,0.3102395 1.24394639,0.561739 2.77848859,0.5616922 1.5343406,-1.09e-5 2.7781037,-0.2514935 2.777972,-0.5616919 -3.55e-5,-3.207e-4 -7.25e-5,-0.012349 -1.11e-4,-0.032969" /></g><g
       id="g15"
       transform="matrix(0.81818177,0,0,0.81818177,32.170833,0.54292651)"><path
         id="path14"
         style="fill:#ffffff;stroke:#000000;stroke-width:0.263861;stroke-dasharray:none;stroke-opacity:1"
         d="M 0.1319305,1.3182584 V 4.4765449 C 0.13244724,4.605212 0.13220601,4.5451481 0.13244724,4.605212 0.13231527,4.91541 1.3760773,5.1668926 2.9104166,5.1669035 4.4447558,5.1668926 5.688518,4.91541 5.688386,4.605212 5.6889026,4.4765449 5.6887304,4.5194338 5.6889026,4.4765449 V 1.3182584 Z"
         sodipodi:nodetypes="cccccccc" /><ellipse
         style="fill:#ffffff;stroke:#000000;stroke-width:0.264387;stroke-dasharray:none;stroke-opacity:1"
         id="ellipse14"
         cx="2.9104166"
         cy="1.1822324"
         rx="2.778223"
         ry="0.56167459" /><path
         id="path15"
         style="fill:none;stroke:#000000;stroke-width:0.264373;stroke-dasharray:none;stroke-opacity:1"
         d="m 0.13247031,2.844773 c -1.0593e-4,0.020688 -2.0234e-4,0.032761 -2.838e-4,0.033081 -1.3173e-4,0.3102395 1.24394639,0.561739 2.77848859,0.5616922 1.5343406,-1.09e-5 2.7781037,-0.2514935 2.777972,-0.5616919 -3.55e-5,-3.207e-4 -7.25e-5,-0.012349 -1.11e-4,-0.032969" /></g><g
       id="g17"
       transform="matrix(0.81818177,0,0,0.81818177,47.991669,0.54292651)"><path
         id="path16"
         style="fill:#ffcc00;stroke:#000000;stroke-width:0.263861;stroke-dasharray:none;stroke-opacity:1"
         d="M 0.1319305,1.3182584 V 4.4765449 C 0.13244724,4.605212 0.13220601,4.5451481 0.13244724,4.605212 0.13231527,4.91541 1.3760773,5.1668926 2.9104166,5.1669035 4.4447558,5.1668926 5.688518,4.91541 5.688386,4.605212 5.6889026,4.4765449 5.6887304,4.5194338 5.6889026,4.4765449 V 1.3182584 Z"
         sodipodi:nodetypes="cccccccc" /><ellipse
         style="fill:#ffcc00;stroke:#000000;stroke-width:0.264387;stroke-dasharray:none;stroke-opacity:1"
         id="ellipse16"
         cx="2.9104166"
         cy="1.1822324"
         rx="2.778223"
         ry="0.56167459" /><path
         id="path17"
         style="fill:none;stroke:#000000;stroke-width:0.264373;stroke-dasharray:none;stroke-opacity:1"
         d="m 0.13247031,2.844773 c -1.0593e-4,0.020688 -2.0234e-4,0.032761 -2.838e-4,0.033081 -1.3173e-4,0.3102395 1.24394639,0.561739 2.77848859,0.5616922 1.5343406,-1.09e-5 2.7781037,-0.2514935 2.777972,-0.5616919 -3.55e-5,-3.207e-4 -7.25e-5,-0.012349 -1.11e-4,-0.032969" /></g><g
       id="g11"
       transform="translate(-6.6145815)"><rect
         style="fill:#000080;fill-opacity:1;stroke-width:0.264539;stroke-dasharray:none"
         id="rect11"
         width="5.8208332"
         height="5.8208332"
         x="69.897919"
         y="0" /><g
         id="g4"
         transform="matrix(0.63249285,0,0,0.71886846,70.965559,0.81590659)"
         style="fill:none;stroke:#ffffff"><path
           id="path1"
           style="fill:#000080;fill-opacity:1;stroke:#ffffff;stroke-width:0.290833;stroke-dasharray:none;stroke-opacity:1"
           d="m 0.1297089,1.4310651 v 3.0675288 c 5.1715e-4,0.1249697 2.7573e-4,0.066632 5.1715e-4,0.1249697 -1.3208e-4,0.301284 1.24462445,0.5455399 2.78019055,0.5455505 1.535566,-1.06e-5 2.7803227,-0.2442665 2.7801906,-0.5455505 5.17e-4,-0.1249697 3.447e-4,-0.083313 5.17e-4,-0.1249697 V 1.4310651 Z"
           sodipodi:nodetypes="cccccccc" /><ellipse
           style="fill:#000080;fill-opacity:1;stroke:#ffffff;stroke-width:0.294986;stroke-dasharray:none;stroke-opacity:1"
           id="ellipse1"
           cx="2.9193351"
           cy="1.2938631"
           rx="2.7670622"
           ry="0.6562373" /><path
           id="path4"
           style="fill:none;stroke:#ffffff;stroke-width:0.294986;stroke-dasharray:none;stroke-opacity:1"
           d="m 0.13247031,2.9260908 c -1.0593e-4,0.020688 -2.0234e-4,0.032761 -2.838e-4,0.033081 -1.3173e-4,0.3102395 1.24394639,0.561739 2.77848859,0.5616922 1.5343406,-1.09e-5 2.7781037,-0.2514935 2.777972,-0.5616919 -3.55e-5,-3.207e-4 -7.25e-5,-0.012349 -1.11e-4,-0.032969" /></g><path
         id="path11"
         style="fill-opacity:1;stroke:#000080;stroke-width:0.282441;stroke-dasharray:none"
         transform="matrix(0.86008542,-0.51015005,0.86008542,0.51015005,0,0)"
         d="m 40.381004,46.106274 h 0.649767 l -0.649767,0.649766 z"
         sodipodi:nodetypes="cccc" /><rect
         style="fill:none;fill-opacity:1;stroke:#ffffff;stroke-width:0.264583;stroke-dasharray:none"
         id="rect6"
         width="4.9427018"
         height="4.9427018"
         x="70.338669"
         y="0.4473342" /><rect
         style="fill:url(#linearGradient6);stroke:none;stroke-width:0.216572;stroke-dasharray:none"
         id="rect7-5"
         width="2.1867204"
         height="0.29817247"
         x="-2.7861671"
         y="75.1334"
         transform="rotate(-90)" /><path
         style="fill:none;fill-opacity:1;stroke:#ffffff;stroke-width:0.276321;stroke-dasharray:none"
         d="M 75.413662,2.9104166 H 74.877084"
         id="path10" /><path
         id="rect10"
         style="fill:#ffffff;stroke-width:0.335363"
         transform="matrix(0.86008542,-0.51015005,0.86008542,0.51015005,0,0)"
         d="m 40.381004,46.106274 h 0.649767 l -0.649767,0.649766 z"
         sodipodi:nodetypes="cccc" /></g></g></svg>
