<svg xmlns="http://www.w3.org/2000/svg" xmlns:xlink="http://www.w3.org/1999/xlink" xml:space="preserve" width="22" height="22" viewBox="0 0 5.821 5.821"><defs><linearGradient id="a"><stop offset=".1" style="stop-color:navy;stop-opacity:1"/><stop offset="1" style="stop-color:navy;stop-opacity:0"/></linearGradient><linearGradient xlink:href="#a" id="b" x1="68.463" x2="68.919" y1="1.707" y2="1.707" gradientTransform="matrix(4.79514 0 0 .13492 -331.075 75.052)" gradientUnits="userSpaceOnUse"/></defs><path d="M69.898 0h5.821v5.821h-5.821z" style="fill:navy;fill-opacity:1;stroke-width:.264539;stroke-dasharray:none" transform="translate(-69.898)"/><g style="fill:none;stroke:#fff" transform="matrix(.6325 0 0 .71887 1.068 .816)"><path d="M.13 1.431v3.193c0 .3 1.245.545 2.78.545 1.536 0 2.78-.244 2.78-.545l.001-.125V1.43Z" style="fill:navy;fill-opacity:1;stroke:#fff;stroke-width:.290833;stroke-dasharray:none;stroke-opacity:1"/><ellipse cx="2.919" cy="1.294" rx="2.767" ry=".656" style="fill:navy;fill-opacity:1;stroke:#fff;stroke-width:.294986;stroke-dasharray:none;stroke-opacity:1"/><path d="M.132 2.926v.033c0 .31 1.244.562 2.779.562 1.534 0 2.778-.252 2.778-.562v-.033" style="fill:none;stroke:#fff;stroke-width:.294986;stroke-dasharray:none;stroke-opacity:1"/></g><path d="M40.381 46.106h.65l-.65.65z" style="fill-opacity:1;stroke:navy;stroke-width:.282441;stroke-dasharray:none" transform="matrix(.86009 -.51015 .86009 .51015 -69.898 0)"/><path d="M70.339.447h4.943V5.39h-4.943z" style="fill:none;fill-opacity:1;stroke:#fff;stroke-width:.264583;stroke-dasharray:none" transform="translate(-69.898)"/><path d="M-2.786 75.133h2.187v.298h-2.187z" style="fill:url(#b);stroke:none;stroke-width:.216572;stroke-dasharray:none" transform="rotate(-90 -34.949 34.949)"/><path d="M75.414 2.91h-.537" style="fill:none;fill-opacity:1;stroke:#fff;stroke-width:.276321;stroke-dasharray:none" transform="translate(-69.898)"/><path d="M40.381 46.106h.65l-.65.65z" style="fill:#fff;stroke-width:.335363" transform="matrix(.86009 -.51015 .86009 .51015 -69.898 0)"/></svg>